<?xml version="1.0" standalone="no"?>
<!DOCTYPE svg PUBLIC "-//W3C//DTD SVG 20010904//EN"
 "http://www.w3.org/TR/2001/REC-SVG-20010904/DTD/svg10.dtd">
<svg version="1.0" xmlns="http://www.w3.org/2000/svg"
 width="3264.000000pt" height="3264.000000pt" viewBox="0 0 3264.000000 3264.000000"
 preserveAspectRatio="xMidYMid meet">
<metadata>
Created by potrace 1.14, written by Peter Selinger 2001-2017
</metadata>
<g transform="translate(0.000000,3264.000000) scale(0.100000,-0.100000)"
fill="#000000" stroke="none">
<path d="M23175 24920 c-359 -18 -721 -72 -1040 -156 -129 -34 -427 -135 -515
-175 -233 -106 -422 -210 -595 -328 -224 -152 -374 -284 -531 -467 -96 -112
-104 -123 -201 -267 -228 -342 -372 -730 -433 -1172 -38 -270 -51 -638 -30
-816 29 -245 47 -346 91 -504 146 -523 463 -974 970 -1381 65 -52 119 -97 119
-99 0 -3 -35 -28 -77 -56 -242 -163 -477 -380 -684 -629 -184 -222 -362 -508
-471 -760 -9 -19 -25 -55 -36 -80 -50 -113 -121 -358 -151 -520 -7 -36 -16
-85 -21 -110 -5 -25 -14 -122 -21 -216 -22 -307 22 -734 102 -999 32 -108 95
-287 116 -334 14 -31 36 -81 50 -111 87 -193 284 -489 443 -664 323 -359 621
-587 1039 -796 99 -50 182 -90 186 -90 3 0 27 -9 53 -21 26 -12 56 -24 67 -29
11 -4 31 -12 45 -18 136 -56 436 -151 593 -187 37 -8 95 -21 130 -29 151 -35
370 -68 567 -86 174 -17 729 -14 880 4 69 8 152 18 185 21 33 4 80 10 105 15
25 5 72 13 105 19 91 16 206 40 245 50 295 79 301 80 375 107 39 14 109 38
157 54 48 16 109 39 135 51 49 22 103 45 138 59 160 66 428 214 635 353 591
395 1037 996 1215 1637 78 282 105 499 105 838 0 299 -15 462 -66 717 -68 339
-184 628 -355 880 -225 332 -562 665 -953 945 -109 78 -113 84 -84 104 368
253 619 540 817 936 130 261 202 468 252 730 29 155 39 278 39 485 0 333 -28
571 -105 875 -32 126 -58 213 -85 280 -12 30 -29 75 -37 100 -26 76 -165 340
-237 448 -102 155 -216 294 -350 427 -131 130 -352 309 -481 388 -44 28 -109
68 -144 90 -72 44 -356 187 -411 207 -19 6 -44 16 -55 20 -121 49 -194 75
-325 114 -95 28 -125 35 -325 76 -280 58 -774 88 -1140 70z m380 -2175 c168
-19 213 -28 322 -64 372 -122 550 -381 530 -770 -15 -278 -114 -502 -301 -685
-107 -103 -331 -261 -521 -366 -164 -90 -187 -101 -201 -96 -22 9 -234 149
-369 244 -361 256 -591 477 -682 656 -36 70 -37 73 -36 181 3 283 143 544 388
725 67 49 198 119 260 139 163 50 372 63 610 36z m-177 -4136 c26 -12 63 -28
82 -36 105 -46 400 -192 495 -245 328 -182 504 -329 621 -516 35 -57 64 -105
64 -107 0 -3 14 -34 30 -71 155 -338 102 -832 -120 -1134 -124 -167 -328 -320
-535 -399 -33 -13 -69 -27 -80 -31 -164 -66 -542 -115 -749 -98 -354 29 -647
175 -870 434 -99 115 -113 134 -165 235 -102 193 -137 354 -129 590 9 241 61
394 210 609 149 215 351 379 753 612 171 99 317 177 333 178 7 0 34 -9 60 -21z"/>
<path d="M9530 24869 c-248 -8 -449 -27 -710 -70 -282 -46 -448 -86 -790 -190
-72 -22 -80 -25 -390 -142 -81 -30 -274 -118 -395 -179 -206 -104 -534 -296
-645 -379 -19 -14 -97 -70 -173 -123 -76 -54 -157 -114 -181 -135 -24 -20 -74
-61 -111 -91 -73 -58 -283 -247 -350 -315 -254 -255 -556 -622 -719 -873 -142
-220 -176 -275 -216 -347 -24 -44 -52 -96 -63 -115 -123 -215 -305 -646 -386
-915 -65 -215 -80 -269 -100 -355 -12 -52 -31 -131 -41 -175 -10 -44 -24 -116
-30 -160 -6 -44 -15 -100 -20 -125 -67 -347 -85 -1024 -39 -1448 16 -153 68
-489 89 -577 11 -44 29 -123 41 -175 18 -84 65 -249 89 -320 5 -14 18 -56 30
-95 30 -97 140 -382 190 -490 68 -146 147 -305 186 -375 19 -36 48 -87 63
-115 65 -117 92 -160 235 -377 322 -488 807 -993 1292 -1345 225 -163 234
-170 459 -306 269 -163 629 -337 930 -449 164 -61 191 -71 220 -78 17 -5 59
-17 95 -28 280 -87 454 -128 725 -172 72 -11 141 -23 155 -25 84 -15 503 -45
715 -51 341 -9 756 14 1160 66 214 27 337 47 625 100 25 5 72 13 105 19 87 16
196 38 305 62 52 12 113 25 135 30 22 5 76 18 120 30 78 20 116 30 193 48 57
14 187 50 235 65 23 7 76 23 117 36 228 67 736 253 965 352 242 105 498 234
548 276 16 14 17 158 17 2754 l0 2738 -2296 0 c-1833 0 -2295 -3 -2291 -12
123 -296 271 -650 282 -673 7 -16 28 -66 45 -110 18 -44 40 -98 50 -121 11
-22 29 -65 40 -95 12 -30 28 -70 37 -89 33 -75 42 -97 63 -149 11 -30 29 -73
40 -95 10 -23 34 -79 53 -126 19 -47 87 -211 152 -365 64 -154 127 -302 138
-330 11 -27 25 -56 30 -62 7 -10 124 -13 523 -13 l514 0 0 -765 0 -765 -67
-55 c-217 -179 -653 -298 -1231 -336 -333 -21 -812 24 -1152 110 -343 86 -704
234 -1000 411 -495 296 -919 791 -1151 1348 -54 130 -111 300 -137 412 -49
204 -48 201 -79 430 -19 147 -23 700 -5 815 6 39 16 111 22 160 19 142 100
470 139 560 5 11 19 49 31 84 21 60 83 199 149 331 69 139 266 444 347 536 11
12 48 54 84 94 36 40 66 76 68 81 12 32 374 326 480 390 79 48 272 157 307
174 184 86 252 114 405 165 397 133 614 165 1105 165 308 -1 342 -2 505 -28
300 -46 640 -143 890 -252 112 -49 314 -148 370 -181 25 -15 70 -40 100 -57
30 -16 84 -50 120 -75 36 -25 101 -70 145 -100 44 -31 135 -100 202 -155 104
-84 125 -98 138 -87 9 7 108 128 222 269 114 141 279 345 367 455 89 109 231
285 316 390 85 106 258 320 383 475 130 161 226 288 223 296 -13 36 -459 379
-601 462 -27 17 -88 55 -135 85 -47 31 -114 71 -150 91 -36 19 -94 52 -130 72
-153 86 -640 315 -671 315 -5 0 -31 9 -57 21 -92 41 -170 70 -297 109 -55 18
-125 40 -155 51 -48 16 -189 54 -385 103 -33 8 -112 24 -175 36 -63 12 -158
30 -210 40 -236 47 -736 97 -1005 102 -93 2 -267 0 -385 -3z"/>
<path d="M18430 22019 c-47 -5 -137 -13 -200 -19 -63 -6 -140 -15 -170 -20
-30 -5 -91 -14 -135 -21 -166 -24 -244 -39 -395 -78 -146 -38 -389 -115 -455
-145 -16 -8 -84 -37 -150 -66 -212 -91 -526 -288 -674 -422 -121 -109 -192
-181 -261 -263 -41 -50 -78 -92 -81 -95 -3 -3 -41 -57 -84 -120 -43 -63 -83
-122 -90 -130 -7 -8 -46 -81 -88 -163 -137 -264 -260 -627 -307 -907 -7 -41
-16 -91 -20 -110 -8 -34 -19 -117 -40 -295 -27 -230 -30 -520 -30 -2768 l0
-2347 1198 2 1197 3 6 2415 c4 1628 9 2436 17 2480 16 98 29 156 61 275 37
133 140 307 240 405 171 166 391 238 701 227 180 -6 306 -33 420 -92 39 -19
75 -35 80 -35 7 0 9 378 8 1128 l-3 1127 -55 7 c-273 34 -521 44 -690 27z"/>
<path d="M1608 11773 c-9 -38 -23 -93 -31 -123 -9 -30 -25 -89 -36 -130 -11
-41 -32 -120 -47 -175 -43 -161 -43 -163 -27 -169 8 -3 309 -6 669 -6 360 0
654 -3 654 -7 0 -8 -5 -25 -85 -323 -26 -96 -62 -231 -80 -300 -19 -69 -47
-175 -64 -237 -17 -61 -40 -146 -51 -190 -12 -43 -28 -103 -37 -133 -8 -30
-23 -88 -34 -127 -38 -145 -61 -229 -69 -258 -8 -29 -31 -113 -69 -257 -11
-40 -26 -98 -34 -128 -9 -30 -25 -91 -37 -135 -11 -44 -29 -109 -39 -145 -10
-36 -29 -103 -41 -150 -12 -47 -33 -123 -46 -170 -13 -46 -24 -94 -24 -107 l0
-23 329 0 c370 0 331 -9 356 85 23 84 56 207 72 265 8 30 23 87 33 125 17 66
31 115 66 245 9 30 24 87 34 125 10 39 25 95 34 125 34 127 49 179 67 248 10
39 28 105 38 145 11 39 26 97 35 127 8 30 62 233 121 450 58 217 114 427 125
465 10 39 31 115 45 170 15 55 29 103 32 107 2 5 303 8 667 8 522 0 666 3 674
13 10 11 22 54 73 245 54 204 97 364 105 390 l6 22 -1684 0 -1684 0 -16 -67z"/>
<path d="M8360 11835 c0 -3 -9 -39 -20 -80 -47 -175 -62 -233 -77 -285 -8 -30
-23 -86 -33 -125 -10 -38 -25 -95 -34 -125 -35 -130 -49 -179 -66 -245 -10
-38 -25 -95 -33 -125 -9 -30 -25 -91 -37 -135 -12 -44 -28 -105 -36 -135 -9
-30 -28 -104 -45 -165 -16 -60 -37 -141 -48 -180 -10 -38 -58 -216 -106 -395
-48 -179 -96 -356 -106 -395 -11 -38 -32 -119 -48 -180 -17 -60 -37 -137 -46
-170 -9 -33 -28 -103 -42 -155 -13 -52 -28 -108 -33 -125 -5 -16 -18 -64 -29
-105 -10 -41 -27 -101 -35 -133 -30 -108 -64 -98 316 -95 l332 3 19 70 c21 80
34 127 47 170 5 17 18 64 29 105 10 41 26 100 34 130 9 30 25 91 37 135 12 44
34 125 50 180 15 55 49 179 75 275 25 96 53 199 61 228 l15 52 334 0 334 0 19
-27 c10 -16 53 -84 94 -153 42 -69 99 -163 128 -210 48 -78 316 -521 415 -685
39 -64 120 -196 156 -252 l14 -23 407 0 c286 0 408 3 408 11 0 11 -34 71 -120
209 -29 47 -60 99 -70 115 -10 17 -53 89 -97 160 -44 72 -101 166 -128 210
-27 44 -98 161 -158 260 -166 274 -227 375 -227 380 0 3 265 5 589 5 l589 0
11 33 c6 17 19 67 31 110 22 84 53 201 76 287 9 30 26 96 39 145 13 50 31 117
40 150 9 33 27 101 40 150 13 50 31 117 40 150 9 33 29 110 45 170 48 180 143
539 186 700 13 50 24 96 24 103 0 9 -343 12 -1680 12 -924 0 -1680 -2 -1680
-5z m2510 -672 c0 -8 -26 -111 -59 -235 -11 -40 -34 -127 -51 -193 -45 -172
-47 -177 -59 -207 l-11 -28 -1000 0 c-970 0 -1000 1 -1000 19 0 17 16 83 71
289 10 39 28 105 38 145 41 155 52 192 56 205 3 9 214 12 1010 12 553 0 1005
-3 1005 -7z"/>
<path d="M16440 11833 c0 -5 -10 -42 -21 -83 -41 -152 -59 -219 -114 -425 -15
-55 -35 -129 -45 -165 -20 -73 -182 -677 -211 -785 -10 -38 -28 -104 -39 -145
-11 -41 -34 -127 -51 -190 -17 -63 -35 -128 -39 -145 -5 -16 -20 -73 -33 -125
-14 -52 -33 -122 -42 -155 -9 -33 -25 -91 -35 -130 -10 -38 -25 -95 -34 -125
-31 -114 -48 -178 -72 -270 -13 -52 -33 -124 -43 -160 -10 -36 -29 -103 -41
-150 -12 -47 -33 -123 -46 -170 -13 -46 -24 -94 -24 -107 l0 -23 330 0 329 0
20 68 c19 62 51 181 101 366 47 177 62 234 77 286 8 30 23 87 33 125 10 39 26
96 34 128 9 31 23 83 32 115 8 31 24 89 34 127 10 39 25 95 33 125 9 30 25 91
37 135 12 44 28 105 37 135 8 30 23 87 33 125 10 39 25 95 34 125 8 30 30 114
49 185 19 72 56 209 82 305 26 96 65 243 87 325 54 201 93 348 112 415 45 165
66 249 66 259 0 13 -670 16 -670 4z"/>
<path d="M21830 11835 c0 -3 -9 -39 -20 -80 -47 -175 -62 -233 -77 -285 -8
-30 -23 -86 -33 -125 -10 -38 -25 -95 -33 -125 -9 -30 -25 -91 -37 -135 -12
-44 -28 -105 -37 -135 -8 -30 -23 -86 -33 -125 -10 -38 -25 -95 -34 -125 -24
-90 -46 -169 -76 -285 -17 -60 -41 -153 -55 -205 -15 -52 -59 -219 -100 -370
-41 -151 -86 -320 -101 -375 -14 -55 -39 -147 -55 -205 -15 -58 -35 -132 -44
-165 -9 -33 -28 -103 -42 -155 -13 -52 -28 -108 -33 -125 -5 -16 -18 -64 -29
-105 -10 -41 -27 -101 -35 -133 -9 -32 -16 -67 -16 -77 0 -20 21 -20 1674 -20
921 0 1677 4 1680 9 3 4 19 59 35 122 16 63 37 141 46 174 9 33 32 120 51 194
19 74 37 138 40 143 3 5 0 15 -6 23 -11 13 -190 15 -1341 15 -1226 0 -1329 1
-1329 16 0 9 9 49 20 88 11 39 25 87 30 106 11 39 204 753 251 930 17 63 40
144 50 180 10 36 30 110 45 165 14 55 29 114 34 130 5 17 18 66 30 110 12 44
25 94 30 110 5 17 17 62 27 100 l19 70 1344 5 1345 5 22 70 c28 90 153 567
153 583 0 9 -370 12 -1680 12 -924 0 -1680 -2 -1680 -5z"/>
<path d="M28565 11828 c-2 -7 -13 -47 -24 -88 -11 -41 -60 -226 -110 -410 -49
-184 -104 -389 -122 -455 -17 -66 -40 -149 -49 -185 -10 -36 -30 -110 -45
-165 -60 -225 -80 -302 -107 -395 -5 -19 -13 -51 -18 -70 -5 -19 -13 -51 -19
-70 -9 -34 -32 -118 -70 -262 -11 -40 -26 -98 -34 -128 -9 -30 -25 -90 -36
-132 -12 -43 -30 -113 -42 -155 -171 -637 -218 -817 -213 -824 3 -5 151 -9
329 -9 299 0 325 1 334 18 5 9 43 143 85 297 116 428 138 507 147 540 5 17 18
64 29 105 11 41 25 91 30 110 5 19 19 69 30 110 31 113 43 151 50 155 3 2 304
-297 669 -666 l663 -669 484 0 c352 0 484 3 484 11 0 6 -55 68 -122 138 -67
69 -185 191 -262 271 -77 80 -190 197 -250 260 -61 63 -219 228 -351 365 -132
138 -292 304 -356 370 -135 138 -209 218 -209 225 0 3 24 22 53 42 68 49 362
253 502 349 61 42 157 109 215 149 58 41 141 98 185 128 44 30 103 72 130 92
28 20 183 128 345 240 162 112 337 234 389 270 103 71 224 155 477 330 l166
115 -486 3 -487 2 -172 -111 c-163 -105 -350 -227 -622 -405 -66 -43 -217
-140 -335 -217 -227 -146 -387 -250 -706 -459 -108 -71 -199 -128 -205 -128
-14 0 -11 35 11 113 19 65 116 432 205 772 92 347 106 401 111 418 5 16 -15
17 -331 17 -259 0 -337 -3 -340 -12z"/>
</g>
</svg>
